# xmcd
# 
# Track frame offsets:
#     150
#     18995
#     36557
# 
# Disc length: 737
# 
# Revision: 1
# Processed by: cddbd v1.5.2PL0 Copyright (c) Steve Scherf et al.
# Submitted via: fre:ac v1.0.17
# 
DISCID=1f02df03
DTITLE=TUBE - だって夏じゃない
DYEAR=1993
DGENRE=J-Pop
TTITLE0=だって夏じゃない
TTITLE1=あずけてごらん(本気ヴァージョン)
TTITLE2=だって夏じゃない(オリジナル・カラオケ)
EXTD=
EXTT0=
EXTT1=
EXTT2=
PLAYORDER=
